<svg
  id="Слой_1"
  data-name="Слой 1"
  xmlns="http://www.w3.org/2000/svg"
  viewBox="0 0 268.53 356.54"
>
  <defs>
    <style>
      .cls-1 {
        fill: none;
      }
      .cls-2 {
        fill: #fff;
      }
      .cls-3 {
        fill: #bf172b;
      }
      .cls-4 {
        fill: #181918;
      }
    </style>
  </defs>
  <path
    class="cls-1"
    d="M133,342.13a2.7,2.7,0,0,0-2.2,1,5.89,5.89,0,0,0,0,6,2.9,2.9,0,0,0,4.42,0,6,6,0,0,0,0-6A2.73,2.73,0,0,0,133,342.13Z"
  />
  <path
    class="cls-1"
    d="M120.47,342.13a2.75,2.75,0,0,0-2.23,1,5.83,5.83,0,0,0,0,6,2.95,2.95,0,0,0,4.46,0,5.83,5.83,0,0,0,0-6A2.76,2.76,0,0,0,120.47,342.13Z"
  />
  <path
    class="cls-1"
    d="M8.52,343.14a2.75,2.75,0,0,0-2.21-1,2.77,2.77,0,0,0-2.24,1,5.92,5.92,0,0,0,0,6,2.74,2.74,0,0,0,2.25,1,2.73,2.73,0,0,0,2.21-1,5.89,5.89,0,0,0,0-6Z"
  />
  <path
    class="cls-1"
    d="M60.37,65.61a1.78,1.78,0,1,0-1.77-1.78A1.78,1.78,0,0,0,60.37,65.61Z"
  />
  <path
    class="cls-1"
    d="M41.47,342.13a2.72,2.72,0,0,0-2.2,1,6,6,0,0,0,0,6,2.91,2.91,0,0,0,4.43,0,6,6,0,0,0,0-6A2.73,2.73,0,0,0,41.47,342.13Z"
  />
  <path
    class="cls-1"
    d="M170.85,346h-2.79v4.22h2.79a2.78,2.78,0,0,0,1.82-.52,2.33,2.33,0,0,0,0-3.2A2.87,2.87,0,0,0,170.85,346Z"
  />
  <path
    class="cls-1"
    d="M57.68,102c-3-4.45-8.25-1-8.25-1l-.26.19-.28.17s-5.15,3.58-2.15,8c2.83,4.18,5.88.57,5-1.19l2.4,3.54,1.46-1,1.46-1L54.7,106.2C56,107.64,60.5,106.15,57.68,102Z"
  />
  <path
    class="cls-1"
    d="M38.93,94.33a2,2,0,1,0,2,2A1.95,1.95,0,0,0,38.93,94.33Z"
  />
  <path
    class="cls-1"
    d="M52,118.82c-2.38-.44-4.61.89-5,2.93a3.9,3.9,0,0,0,0,1,4.33,4.33,0,0,0,3.68,3.54c2.38.42,4.61-.9,5-3,0-.09,0-.16,0-.25A4.16,4.16,0,0,0,52,118.82ZM53.64,123a.38.38,0,0,1,0,.1h0A2.21,2.21,0,0,1,51,124.29a2.45,2.45,0,0,1-2-1.61,1.61,1.61,0,0,1,0-.58,2.17,2.17,0,0,1,2.69-1.34C52.91,121,53.81,122,53.64,123Z"
  />
  <path
    class="cls-1"
    d="M54.59,342.13a2.76,2.76,0,0,0-2.23,1,5.89,5.89,0,0,0,0,6,3,3,0,0,0,4.47,0,5.89,5.89,0,0,0,0-6A2.77,2.77,0,0,0,54.59,342.13Z"
  />
  <path
    class="cls-1"
    d="M59,87.54a4.62,4.62,0,0,0,1.3-3.47V84a3.55,3.55,0,0,0-1.06-2.23c-1.52-1.43-4.09-1.15-5.75.61a4.84,4.84,0,0,0-1.3,2.78v.08a3.53,3.53,0,0,0,1.06,2.92C54.79,89.58,57.37,89.31,59,87.54Zm-4.81-2.31a2.73,2.73,0,0,1,.74-1.5c.91-1,2.23-1.2,2.95-.53a1.5,1.5,0,0,1,.42.78,2.55,2.55,0,0,1-.74,2.2,2.17,2.17,0,0,1-2.95.53A1.6,1.6,0,0,1,54.21,85.23Z"
  />
  <path
    class="cls-1"
    d="M105.11,345.17a4,4,0,0,0-.69-2.3,2.45,2.45,0,0,0-2-.92,2.88,2.88,0,0,0-1.69.49,3,3,0,0,0-1,1.39,4.88,4.88,0,0,0-.3,1.34Z"
  />
  <path
    class="cls-1"
    d="M50.09,74.21A10.05,10.05,0,1,0,40,84.26,10.05,10.05,0,0,0,50.09,74.21Z"
  />
  <path
    class="cls-1"
    d="M123.12,73a2.19,2.19,0,1,0-2.19-2.19A2.19,2.19,0,0,0,123.12,73Z"
  />
  <path
    class="cls-1"
    d="M265,343.14a3,3,0,0,0-4.45,0,5.92,5.92,0,0,0,0,6,2.95,2.95,0,0,0,4.46,0,5.89,5.89,0,0,0,0-6Z"
  />
  <path
    class="cls-1"
    d="M120.22,87.9A4.46,4.46,0,0,0,122,84.08a3.22,3.22,0,0,0-.72-1.85,4.07,4.07,0,0,0-5.76-.22,4.6,4.6,0,0,0-1.77,3.14,3.4,3.4,0,0,0,.7,2.54C115.74,89.32,118.32,89.41,120.22,87.9Zm-4.49-2.72a2.84,2.84,0,0,1,1-1.63c1-.83,2.38-.87,3-.1a1.5,1.5,0,0,1,.3.59,2.55,2.55,0,0,1-1,2.32c-1,.81-2.38.86-3,.08A1.44,1.44,0,0,1,115.73,85.18Z"
  />
  <path
    class="cls-1"
    d="M101.47,69.28,99,74.15l2,1,2,1,2.47-4.87c-.79,2.37,3.64,6.44,6.54.71,3.1-6.1-4-9.81-4-9.81l-.38-.16-.37-.21S100.12,58.32,97,64.42C94.12,70.14,100,71.31,101.47,69.28Z"
  />
  <path
    class="cls-1"
    d="M94.47,127.2A2.54,2.54,0,1,0,97,124.66,2.54,2.54,0,0,0,94.47,127.2Z"
  />
  <path
    class="cls-1"
    d="M104.52,89.2a10.88,10.88,0,1,0,10.88,10.87A10.88,10.88,0,0,0,104.52,89.2Z"
  />
  <circle class="cls-1" cx="92.59" cy="83.89" r="1.07" />
  <path
    class="cls-1"
    d="M98.81,142.4a4.78,4.78,0,0,0,.49-2.49,3.7,3.7,0,0,0-2-3.1c-1.87-.92-4.25.09-5.31,2.26a4.78,4.78,0,0,0-.5,1.83,3.75,3.75,0,0,0,1.94,3.76A4.11,4.11,0,0,0,98.81,142.4Zm-5.28-1.52a2.85,2.85,0,0,1,.29-.93c.58-1.18,1.76-1.8,2.65-1.36a1.6,1.6,0,0,1,.85,1.32,2.77,2.77,0,0,1-.29,1.62,2.16,2.16,0,0,1-2.67,1.35A1.81,1.81,0,0,1,93.53,140.88Z"
  />
  <polygon
    class="cls-1"
    points="49.71 294.59 63.5 294.59 56.16 248.1 49.71 294.59"
  />
  <path
    class="cls-1"
    d="M21.39,344.88a1.68,1.68,0,0,0,0-2.45,2.25,2.25,0,0,0-1.48-.43H16.76v3.33h3.15A2.2,2.2,0,0,0,21.39,344.88Z"
  />
  <path
    class="cls-1"
    d="M20.14,346.77H16.76v3.53h3.38a2.45,2.45,0,0,0,1.59-.45,1.62,1.62,0,0,0,.55-1.32,1.56,1.56,0,0,0-.55-1.31A2.45,2.45,0,0,0,20.14,346.77Z"
  />
  <path
    class="cls-1"
    d="M110.41,115.74a1.86,1.86,0,1,0,1.86,1.86A1.85,1.85,0,0,0,110.41,115.74Z"
  />
  <polygon
    points="21.88 322.85 21.88 249.54 34.53 249.54 34.53 241.85 0.63 241.85 0.63 249.54 13.28 249.54 13.28 322.85 21.88 322.85"
  />
  <path
    d="M67.92,322.85h8.73l-13.53-81H49.33l-12.27,81h8.73l2.91-20.58H64.63ZM49.71,294.59l6.45-46.48,7.34,46.48Z"
  />
  <polygon
    points="103.97 282.74 120.92 241.85 111.56 241.85 94.99 282.74 111.31 322.85 120.67 322.85 103.97 282.74"
  />
  <rect x="85.5" y="241.86" width="8.6" height="80.99" />
  <polygon
    points="158.61 249.54 158.61 241.85 129.14 241.85 129.14 322.85 159.5 322.85 159.5 315.16 137.87 315.16 137.87 284.56 154.82 284.56 154.82 276.88 137.87 276.88 137.87 249.54 158.61 249.54"
  />
  <path
    d="M188.34,277.27h-8.61c-1.68,0-2.76-.26-3.22-.78s-.7-1.6-.7-3.25V253.57c0-1.73.23-2.84.7-3.32s1.54-.71,3.22-.71h5.82c1.69,0,2.76.24,3.23.71s.69,1.59.69,3.32v11.07h8.73v-12.5q0-10.29-10-10.28H177.08q-10,0-10,10.28v22.53q0,10.29,10,10.28h8.6a4.88,4.88,0,0,1,3.16.72c.51.48.76,1.59.76,3.32v22.14c0,1.73-.25,2.84-.76,3.32s-1.56.71-3.16.71H180c-1.69,0-2.77-.23-3.23-.71s-.69-1.59-.69-3.32V300.06h-8.73v12.5q0,10.29,10,10.29h11q10,0,10-10.29v-25Q198.33,277.27,188.34,277.27Z"
  />
  <polygon
    points="236.02 278.57 219.07 278.57 219.07 241.85 210.34 241.85 210.34 322.85 219.07 322.85 219.07 286.26 236.02 286.26 236.02 322.85 244.75 322.85 244.75 241.85 236.02 241.85 236.02 278.57"
  />
  <rect x="259.93" y="241.86" width="8.6" height="80.99" />
  <path
    class="cls-2"
    d="M7,45.38l0,0c12.11-11,38.75-18.73,69.68-18.73s57.56,7.68,69.68,18.73l0,0c-12.11-11.05-38.76-18.73-69.7-18.73S19.05,34.33,7,45.38Z"
  />
  <rect
    class="cls-3"
    x="207.3"
    y="131.22"
    width="22.92"
    height="24.24"
    rx="2.51"
  />
  <rect
    class="cls-4"
    x="201.82"
    y="60.12"
    width="22.92"
    height="24.24"
    rx="2.51"
  />
  <path
    class="cls-3"
    d="M265.8,162V123.07a26.62,26.62,0,0,0-26.62-26.62H206.64c-4.5,0-13.11-.68-14.34-2s-1.86-4.16-1.86-8.43V56.75q0-6.73,1.86-8.59c1.23-1.23,9.84-1.85,14.34-1.85h15.5q6.74,0,8.6,1.85t1.85,8.59h0a9.46,9.46,0,0,0,9.46,9.46h4.34a9.46,9.46,0,0,0,9.46-9.46v-3.7a26.63,26.63,0,0,0-26.63-26.63H199.56c-19.4,0-32.37,4.76-32.37,26.63V89.71c0,14.7,17.67,26.62,32.37,26.62h29.66c4.26,0,10,.62,11.31,1.86s2,4.1,2,8.59v31.49c0,4.5-.68,7.36-2,8.59s-7.05,1.86-11.31,1.86H207.31c-4.49,0-6.1,0-7.14-1.38-1.63-2.17-1.3-4.7-1.3-9.19l.17-4.53a9.86,9.86,0,0,0-9.71-10.22l-9.77-.14a9.85,9.85,0,0,0-10,9.85c0,14.71,8.22,36.07,30.67,35.49h39C260.32,188.61,265.8,180.67,265.8,162Z"
  />
  <path
    class="cls-3"
    d="M97,141.53a2.77,2.77,0,0,0,.29-1.62,1.6,1.6,0,0,0-.85-1.32c-.89-.44-2.07.18-2.65,1.36a2.85,2.85,0,0,0-.29.93,1.81,1.81,0,0,0,.83,2A2.16,2.16,0,0,0,97,141.53Z"
  />
  <path
    class="cls-3"
    d="M119,86.36A2.55,2.55,0,0,0,120,84a1.5,1.5,0,0,0-.3-.59c-.61-.77-2-.73-3,.1a2.84,2.84,0,0,0-1,1.63,1.44,1.44,0,0,0,.26,1.26C116.6,87.22,117.94,87.17,119,86.36Z"
  />
  <path
    class="cls-3"
    d="M98.36,152.81a6.79,6.79,0,0,1,2.63.53h0l1.31-3.16L137.57,65.3c-11.8-6.46-29.29-11-49.35-12.28v131l6.13-14.74,1.4-3.37a6.8,6.8,0,0,1-4.21-6.07,1.85,1.85,0,0,1,0-.23A6.83,6.83,0,0,1,98.36,152.81Zm12-33.35a1.86,1.86,0,1,1,1.86-1.86A1.85,1.85,0,0,1,110.41,119.46ZM104.52,111a10.88,10.88,0,1,1,10.88-10.88A10.88,10.88,0,0,1,104.52,111Zm-5,16.25A2.54,2.54,0,1,1,97,124.66,2.54,2.54,0,0,1,99.54,127.2Zm23.58-58.57a2.19,2.19,0,1,1-2.19,2.19A2.19,2.19,0,0,1,123.12,68.63Zm-9.38,16.52A4.6,4.6,0,0,1,115.51,82a4.07,4.07,0,0,1,5.76.22,3.22,3.22,0,0,1,.72,1.85,4.46,4.46,0,0,1-1.77,3.82c-1.9,1.51-4.48,1.42-5.78-.21A3.4,3.4,0,0,1,113.74,85.15ZM97,64.42c3.09-6.1,10.26-2.58,10.26-2.58l.37.21.38.16s7.08,3.71,4,9.81c-2.9,5.73-7.33,1.66-6.54-.71L103,76.18l-2-1-2-1,2.47-4.87C100,71.31,94.12,70.14,97,64.42ZM91.52,83.89A1.07,1.07,0,1,1,92.59,85,1.07,1.07,0,0,1,91.52,83.89Zm0,57a4.78,4.78,0,0,1,.5-1.83c1.06-2.17,3.44-3.18,5.31-2.26a3.7,3.7,0,0,1,2,3.1,4.78,4.78,0,0,1-.49,2.49,4.11,4.11,0,0,1-5.33,2.26A3.75,3.75,0,0,1,91.54,140.9Z"
  />
  <path
    class="cls-3"
    d="M6.89,45.43l.06,0c12.1-11.05,38.75-18.73,69.7-18.73s57.59,7.68,69.7,18.73l.07,0c4.42-4,6.88-8.56,6.88-13.32C153.3,14.38,119,0,76.65,0S0,14.38,0,32.11C0,36.87,2.47,41.38,6.89,45.43Z"
  />
  <path
    d="M9.4,342.55a3.45,3.45,0,0,0-1.19-1.46,4.09,4.09,0,0,0-2.43-.74,4.45,4.45,0,0,0-2.48.7,4.57,4.57,0,0,0-1.64,2,8.63,8.63,0,0,0,0,6.22,4.49,4.49,0,0,0,1.64,2,4.44,4.44,0,0,0,2.48.69,4.15,4.15,0,0,0,2.4-.73,3.37,3.37,0,0,0,1.15-1.34v1.87h2.14v-8.51c0-.43,0-.87,0-1.32l.12-1.37H9.56Zm-.88,6.62a2.73,2.73,0,0,1-2.21,1,2.74,2.74,0,0,1-2.25-1,5.92,5.92,0,0,1,0-6,2.77,2.77,0,0,1,2.24-1,2.75,2.75,0,0,1,2.21,1,5.89,5.89,0,0,1,0,6Z"
  />
  <path
    d="M22.12,346a2.9,2.9,0,0,0,1.08-.69,2.46,2.46,0,0,0,.69-1.79,2.93,2.93,0,0,0-.4-1.59,2.51,2.51,0,0,0-1.24-1,5.64,5.64,0,0,0-2.13-.35H14.75v11.2h5.56a4.47,4.47,0,0,0,2.91-.84,2.74,2.74,0,0,0,1-2.27,2.64,2.64,0,0,0-.76-2A2.77,2.77,0,0,0,22.12,346Zm-5.36-4h3.15a2.25,2.25,0,0,1,1.48.43,1.68,1.68,0,0,1,0,2.45,2.2,2.2,0,0,1-1.48.45H16.76Zm5,7.85a2.45,2.45,0,0,1-1.59.45H16.76v-3.53h3.38a2.45,2.45,0,0,1,1.59.45,1.56,1.56,0,0,1,.55,1.31A1.62,1.62,0,0,1,21.73,349.85Z"
  />
  <polygon
    points="25.5 342.35 29.26 342.35 29.26 351.75 31.38 351.75 31.38 342.35 35.17 342.35 35.17 340.55 25.5 340.55 25.5 342.35"
  />
  <path
    d="M44.24,341.05a5.4,5.4,0,0,0-2.77-.7,5.33,5.33,0,0,0-2.75.7,4.79,4.79,0,0,0-1.8,2,7.94,7.94,0,0,0,0,6.2,4.79,4.79,0,0,0,1.8,2,5.33,5.33,0,0,0,2.75.7,5.4,5.4,0,0,0,2.77-.7,4.77,4.77,0,0,0,1.82-2,7.83,7.83,0,0,0,0-6.2A4.77,4.77,0,0,0,44.24,341.05Zm-.54,8.12a2.91,2.91,0,0,1-4.43,0,6,6,0,0,1,0-6,2.93,2.93,0,0,1,4.43,0,6,6,0,0,1,0,6Z"
  />
  <path
    d="M57.6,341.05a4.45,4.45,0,0,0-2.48-.7,4.08,4.08,0,0,0-2.44.74,3.5,3.5,0,0,0-1.18,1.46l-.16-2H49.26l.12,1.37c0,.45,0,.89,0,1.32v13.3h2.14v-6.66a3.32,3.32,0,0,0,1.13,1.34,4.1,4.1,0,0,0,2.42.73,4.44,4.44,0,0,0,2.48-.69,4.55,4.55,0,0,0,1.64-2,8.63,8.63,0,0,0,0-6.22A4.64,4.64,0,0,0,57.6,341.05Zm-.77,8.12a3,3,0,0,1-4.47,0,5.89,5.89,0,0,1,0-6,3,3,0,0,1,4.47,0,5.89,5.89,0,0,1,0,6Z"
  />
  <path
    d="M67.4,342.13a3.87,3.87,0,0,1,1.44.3,4,4,0,0,1,1.33.9l.7-1.58a4.29,4.29,0,0,0-1.61-1,5.77,5.77,0,0,0-2-.37,5.54,5.54,0,0,0-2.79.68,4.64,4.64,0,0,0-1.85,2,6.8,6.8,0,0,0-.65,3.08,7.14,7.14,0,0,0,.64,3.15,4.69,4.69,0,0,0,1.84,2,5.55,5.55,0,0,0,2.81.7,5.78,5.78,0,0,0,2-.37,4.63,4.63,0,0,0,1.64-1l-.7-1.58a3.84,3.84,0,0,1-1.36.9,4.11,4.11,0,0,1-1.41.28,2.91,2.91,0,0,1-2.39-1,4.54,4.54,0,0,1-.87-3,4.45,4.45,0,0,1,.87-3A3,3,0,0,1,67.4,342.13Z"
  />
  <path
    d="M80.33,346.42a3.64,3.64,0,0,0-.87-.75l-.19-.08,3.64-5H80.58l-3.32,4.58H75.42v-4.58H73.3v11.2h2.12v-4.89H77a3.09,3.09,0,0,1,.93.12,1.51,1.51,0,0,1,.68.45,4.61,4.61,0,0,1,.62.9l1.9,3.42h2.29l-2.23-4.05A7.25,7.25,0,0,0,80.33,346.42Z"
  />
  <polygon
    points="86.93 348.76 86.93 340.55 84.98 340.55 84.98 351.75 86.76 351.75 92.62 343.54 92.62 351.75 94.55 351.75 94.55 340.55 92.77 340.55 86.93 348.76"
  />
  <path
    d="M104.87,341a4.5,4.5,0,0,0-2.52-.67,4.8,4.8,0,0,0-4.47,2.76,7.52,7.52,0,0,0,0,6.16,4.63,4.63,0,0,0,1.9,2,6,6,0,0,0,3,.69,6.88,6.88,0,0,0,2.24-.37,5,5,0,0,0,1.8-1.06l-.7-1.53a4.54,4.54,0,0,1-1.55.92,5.31,5.31,0,0,1-1.75.28,3.35,3.35,0,0,1-2.61-1,4.08,4.08,0,0,1-.91-2.73H107v-.71a7.11,7.11,0,0,0-.53-2.85A4.19,4.19,0,0,0,104.87,341Zm-4.18,1.42a2.88,2.88,0,0,1,1.69-.49,2.45,2.45,0,0,1,2,.92,4,4,0,0,1,.69,2.3H99.35a4.88,4.88,0,0,1,.3-1.34A3,3,0,0,1,100.69,342.44Z"
  />
  <path
    d="M123.47,341.05a4.42,4.42,0,0,0-2.47-.7,4.11,4.11,0,0,0-2.45.74,3.4,3.4,0,0,0-1.17,1.46l-.17-2h-2.07c0,.46.08.92.11,1.37s0,.89,0,1.32v13.3h2.14v-6.66a3.4,3.4,0,0,0,1.13,1.34A4.15,4.15,0,0,0,121,352a4.41,4.41,0,0,0,2.47-.69,4.49,4.49,0,0,0,1.64-2,8.49,8.49,0,0,0,0-6.22A4.57,4.57,0,0,0,123.47,341.05Zm-.77,8.12a2.95,2.95,0,0,1-4.46,0,5.83,5.83,0,0,1,0-6,3,3,0,0,1,4.46,0,5.83,5.83,0,0,1,0,6Z"
  />
  <path
    d="M135.78,341.05a5.39,5.39,0,0,0-2.76-.7,5.28,5.28,0,0,0-2.75.7,4.66,4.66,0,0,0-1.8,2,7.83,7.83,0,0,0,0,6.2,4.66,4.66,0,0,0,1.8,2,5.28,5.28,0,0,0,2.75.7,5.39,5.39,0,0,0,2.76-.7,4.77,4.77,0,0,0,1.82-2,7.83,7.83,0,0,0,0-6.2A4.77,4.77,0,0,0,135.78,341.05Zm-.54,8.12a2.9,2.9,0,0,1-4.42,0,5.89,5.89,0,0,1,0-6,2.92,2.92,0,0,1,4.42,0,6,6,0,0,1,0,6Z"
  />
  <path
    d="M142.05,343.69a25.41,25.41,0,0,1-.12,2.68,8.25,8.25,0,0,1-.42,1.87,3.33,3.33,0,0,1-.78,1.23,4.08,4.08,0,0,1-1.22.79l.72,1.77a5.24,5.24,0,0,0,1.74-1,4.65,4.65,0,0,0,1.17-1.61,8.69,8.69,0,0,0,.67-2.39,22.55,22.55,0,0,0,.21-3.31v-1.44h4v9.44h2.11v-11.2h-8Z"
  />
  <path
    d="M154.69,343.69a25.11,25.11,0,0,1-.13,2.68,8.29,8.29,0,0,1-.41,1.87,3.48,3.48,0,0,1-.79,1.23,4.16,4.16,0,0,1-1.21.79l.71,1.77a5.24,5.24,0,0,0,1.74-1,4.81,4.81,0,0,0,1.18-1.61,9.07,9.07,0,0,0,.66-2.39,22.55,22.55,0,0,0,.21-3.31v-1.44h4v9.44h2.12v-11.2h-8Z"
  />
  <path
    d="M171.09,344.46h-3v-3.91h-2.12v11.2h5.15a5.28,5.28,0,0,0,2.29-.45,3.17,3.17,0,0,0,1.43-1.27,3.92,3.92,0,0,0,.49-2,3.39,3.39,0,0,0-1.06-2.68A4.72,4.72,0,0,0,171.09,344.46Zm1.58,5.23a2.78,2.78,0,0,1-1.82.52h-2.79V346h2.79a2.87,2.87,0,0,1,1.83.5,2.33,2.33,0,0,1,0,3.2Z"
  />
  <rect x="176.8" y="340.55" width="2.12" height="11.19" />
  <polygon
    points="189.71 348.76 189.71 340.55 187.76 340.55 187.76 351.75 189.54 351.75 195.4 343.55 195.4 351.75 197.32 351.75 197.32 340.55 195.55 340.55 189.71 348.76"
  />
  <polygon
    points="206.19 351.75 208.31 351.75 208.31 342.31 213.64 342.31 213.64 351.75 215.76 351.75 215.76 340.55 206.19 340.55 206.19 351.75"
  />
  <polygon
    points="220.92 348.76 220.92 340.55 218.97 340.55 218.97 351.75 220.75 351.75 226.61 343.54 226.61 351.75 228.54 351.75 228.54 340.55 226.76 340.55 220.92 348.76"
  />
  <polygon
    points="241.06 340.55 238.97 340.55 238.97 349.99 233.87 349.99 233.87 340.55 231.75 340.55 231.75 351.75 240.98 351.75 240.98 354.63 242.78 354.63 242.78 349.99 241.06 349.99 241.06 340.55"
  />
  <polygon
    points="254.23 340.55 252.13 340.55 252.13 349.99 247.03 349.99 247.03 340.55 244.92 340.55 244.92 351.75 254.14 351.75 254.14 354.63 255.94 354.63 255.94 349.99 254.23 349.99 254.23 340.55"
  />
  <path
    d="M265.87,342.55a3.45,3.45,0,0,0-1.19-1.46,4.09,4.09,0,0,0-2.43-.74,4.45,4.45,0,0,0-2.48.7,4.57,4.57,0,0,0-1.64,2,8.63,8.63,0,0,0,0,6.22,4.28,4.28,0,0,0,4.12,2.69,4.15,4.15,0,0,0,2.4-.73,3.37,3.37,0,0,0,1.15-1.34v1.87h2.14v-8.51c0-.43,0-.87.05-1.32l.12-1.37H266Zm-.88,6.62a2.95,2.95,0,0,1-4.46,0,5.92,5.92,0,0,1,0-6,3,3,0,0,1,4.45,0,5.89,5.89,0,0,1,0,6Z"
  />
  <path
    class="cls-3"
    d="M51.61,120.76a2.17,2.17,0,0,0-2.69,1.34,1.61,1.61,0,0,0,0,.58,2.45,2.45,0,0,0,2,1.61,2.21,2.21,0,0,0,2.64-1.23h0a.38.38,0,0,0,0-.1C53.81,122,52.91,121,51.61,120.76Z"
  />
  <path
    class="cls-3"
    d="M65.08,127.28V53c-20.15,1.28-37.71,5.85-49.49,12.35l.23.56L65.08,184.07V164.72a2.67,2.67,0,1,1,0-3.33V148a10.35,10.35,0,0,1-9.88-10,2.06,2.06,0,0,1,0-.35A10.38,10.38,0,0,1,65.08,127.28ZM60.37,62.06a1.78,1.78,0,1,1-1.77,1.77A1.78,1.78,0,0,1,60.37,62.06ZM52.21,85.15a4.84,4.84,0,0,1,1.3-2.78c1.66-1.76,4.23-2,5.75-.61A3.55,3.55,0,0,1,60.32,84v.08A4.62,4.62,0,0,1,59,87.54c-1.65,1.77-4.23,2-5.75.61a3.53,3.53,0,0,1-1.06-2.92ZM30,74.21A10.05,10.05,0,1,1,40,84.26,10.05,10.05,0,0,1,30,74.21Zm8.94,24a2,2,0,1,1,2-2A1.95,1.95,0,0,1,38.93,98.23ZM55.59,123.3c-.36,2-2.59,3.37-5,3a4.33,4.33,0,0,1-3.68-3.54,3.9,3.9,0,0,1,0-1c.37-2,2.6-3.37,5-2.93a4.16,4.16,0,0,1,3.68,4.23C55.62,123.14,55.61,123.21,55.59,123.3Zm1.5-13.55-1.46,1-1.46,1-2.4-3.54c.85,1.76-2.2,5.37-5,1.19-3-4.45,2.15-8,2.15-8l.28-.17.26-.19s5.24-3.45,8.25,1c2.82,4.17-1.66,5.66-3,4.22Z"
  />
  <path
    class="cls-3"
    d="M57.58,86.18a2.55,2.55,0,0,0,.74-2.2,1.5,1.5,0,0,0-.42-.78c-.72-.67-2-.43-2.95.53a2.73,2.73,0,0,0-.74,1.5,1.6,1.6,0,0,0,.42,1.48A2.17,2.17,0,0,0,57.58,86.18Z"
  />
</svg>
